<?xml version="1.0" encoding="utf-8"?>
<!-- Generator: Adobe Illustrator 21.0.2, SVG Export Plug-In . SVG Version: 6.00 Build 0)  -->
<svg version="1.1" xmlns="http://www.w3.org/2000/svg" xmlns:xlink="http://www.w3.org/1999/xlink" x="0px" y="0px"
	 viewBox="0 0 1339.2 1044" style="enable-background:new 0 0 1339.2 1044;" xml:space="preserve">
<style type="text/css">
	.st0{enable-background:new    ;}
	.st1{fill-rule:evenodd;clip-rule:evenodd;fill:#4D5968;}
	.st2{opacity:0.1216;enable-background:new    ;}
	.st3{fill-rule:evenodd;clip-rule:evenodd;fill:#FFFFFF;}
	.st4{fill-rule:evenodd;clip-rule:evenodd;fill:#2F3341;}
	.st5{fill-rule:evenodd;clip-rule:evenodd;fill:#459271;}
</style>
<g id="Shape_2_1_" class="st0">
	<g id="Shape_2">
		<g>
			<path class="st1" d="M1339.2,96.7c-61.1,163.5-373.3,256.4-708.2,55.7C281.9-56.8,25.8,15.6,0,23.7v908.5
				c11,8.9,22.8,17.2,35.3,24.7c204.2,123.8,343.9-25.5,524.2-109.4c169.1-78.7,371.5,167.1,567.4,189.4
				c152.6,17.3,198.6-78,212.4-142.4V96.7z"/>
		</g>
	</g>
</g>
<g id="Ellipse_5_copy_2_1_" class="st2">
	<g id="Ellipse_5_copy_2">
		<g>
			<path class="st3" d="M1339.2,227.5c-1.2,0-2.4,0-3.6,0c-92.3,0-96.5,58.9-96.5,151.2S1192.9,576,1285.2,576
				c17.6,0,35.9-4.7,54-13V227.5z"/>
		</g>
	</g>
</g>
<g id="Shape_3_1_" class="st0">
	<g id="Shape_3">
		<g>
			<path class="st4" d="M1339.2,81.9c-75.8-13.2-159.3,5.3-223.9,49.2c-97.9,66.4-218.9,330.9-581.8,2.9
				C312.5-65.9,118.1,1.3,0,84.2v23.5c248.7-150,412.9-24.1,496.1,49.2c147.2,129.7,308.6,232.2,420.5,188.6
				c103.3-51.7,166-156.6,254.9-207.4c52.8-30.1,115.5-34.6,167.8-30.6V81.9z"/>
		</g>
	</g>
</g>
<g id="Forma_1_1_" class="st0">
	<g id="Forma_1">
		<g>
			<path class="st5" d="M856.7,292.3c-1.1-1.1-2.6-1.6-4-1.6c0.1-1.5-0.5-2.9-1.6-4.1c-2.1-2.1-5.5-2.1-7.6,0c-1.7,1.7-2,4.1-1,6.2
				l-14.5,14.5c-2.1-1-4.5-0.6-6.2,1c-2.1,2.1-2.1,5.5,0,7.7c1.1,1.1,2.6,1.6,4.1,1.6c-0.1,1.5,0.5,2.9,1.6,4c2.1,2.1,5.5,2.1,7.6,0
				c1.7-1.7,2-4.1,1-6.2l14.5-14.5c2.1,1,4.5,0.6,6.2-1C858.8,297.9,858.8,294.4,856.7,292.3z"/>
		</g>
	</g>
</g>
<g id="Forma_1_copy_4_1_" class="st0">
	<g id="Forma_1_copy_4">
		<g>
			<path class="st5" d="M457.5,89.7c-2-1.2-4.5-1-6.3,0.4l-17.5-10.7c0.5-2.2-0.4-4.5-2.5-5.8c-2.5-1.6-5.9-0.8-7.4,1.8
				c-0.8,1.3-1,2.9-0.6,4.3c-1.4,0.3-2.7,1.1-3.6,2.5c-1.6,2.5-0.8,5.9,1.8,7.4c2,1.2,4.5,1,6.3-0.4l17.4,10.7
				c-0.5,2.2,0.4,4.5,2.5,5.8c2.5,1.6,5.9,0.8,7.4-1.8c0.8-1.3,1-2.9,0.6-4.3c1.4-0.3,2.7-1.1,3.6-2.5
				C460.9,94.6,460.1,91.3,457.5,89.7z"/>
		</g>
	</g>
</g>
<g id="Forma_1_copy_6_1_" class="st0">
	<g id="Forma_1_copy_6">
		<g>
			<path class="st5" d="M269.9,23.9c-0.4-1.1-1.3-1.9-2.3-2.2c0.5-1,0.5-2.1,0.1-3.2c-0.8-2.1-3.2-3-5.2-2.2
				c-1.6,0.7-2.6,2.2-2.5,3.9l-14.1,5.8c-1.1-1.3-2.9-1.7-4.5-1.1c-2.1,0.8-3.1,3.2-2.2,5.2c0.4,1.1,1.3,1.9,2.3,2.2
				c-0.5,1-0.5,2.1-0.1,3.2c0.8,2.1,3.2,3,5.2,2.2c1.6-0.7,2.6-2.2,2.5-3.9l14.1-5.8c1.1,1.3,2.9,1.7,4.5,1.1
				C269.8,28.3,270.8,26,269.9,23.9z"/>
		</g>
	</g>
</g>
<g id="Forma_1_copy_7_1_" class="st0">
	<g id="Forma_1_copy_7">
		<g>
			<path class="st5" d="M25.7,71.8c-2-1.1-4.4-0.8-6,0.7L2.2,63.1c0.3-2-0.5-3.9-2.2-5.1v16.6l14.4,7.8c-0.4,2.2,0.7,4.4,2.7,5.5
				c2.6,1.4,5.7,0.4,7.1-2.1c0.7-1.3,0.8-2.9,0.3-4.2c1.4-0.3,2.6-1.2,3.3-2.6C29.2,76.3,28.2,73.2,25.7,71.8z"/>
		</g>
	</g>
</g>
<g id="Forma_1_copy_5_1_" class="st0">
	<g id="Forma_1_copy_5">
		<g>
			<path class="st5" d="M592.9,201.2c-1.6-1.7-4-2.2-6.1-1.3L573,184.8c1.1-2,0.8-4.5-0.8-6.2c-2-2.2-5.4-2.4-7.6-0.4
				c-1.2,1.1-1.8,2.5-1.8,4c-1.5-0.1-3,0.3-4.1,1.4c-2.2,2-2.4,5.4-0.3,7.6c1.6,1.7,4,2.2,6.1,1.3l13.8,15.1c-1.1,2-0.8,4.5,0.8,6.2
				c2,2.2,5.4,2.4,7.6,0.4c1.2-1.1,1.8-2.5,1.8-4c1.5,0.1,3-0.3,4.1-1.4C594.8,206.8,594.9,203.4,592.9,201.2z"/>
		</g>
	</g>
</g>
<g id="Forma_1_copy_1_" class="st0">
	<g id="Forma_1_copy">
		<g>
			<path class="st5" d="M997.9,274.2c-1.5-0.4-3.1-0.1-4.3,0.7c-0.7-1.3-1.9-2.3-3.4-2.7c-2.9-0.7-5.8,1-6.6,3.9
				c-0.6,2.3,0.4,4.6,2.3,5.8l-5,19.9c-2.3,0.2-4.2,1.8-4.8,4.1c-0.7,2.9,1,5.8,3.9,6.6c1.5,0.4,3.1,0.1,4.3-0.7
				c0.7,1.3,1.9,2.3,3.4,2.7c2.9,0.7,5.8-1,6.6-3.9c0.6-2.3-0.4-4.6-2.3-5.8l5-19.8c2.3-0.2,4.2-1.8,4.8-4.1
				C1002.5,277.9,1000.8,275,997.9,274.2z"/>
		</g>
	</g>
</g>
<g id="Forma_1_copy_2_1_" class="st0">
	<g id="Forma_1_copy_2">
		<g>
			<path class="st3" d="M1197.2,104.4c-1.1-1.1-2.6-1.6-4-1.6c0.1-1.5-0.5-2.9-1.6-4.1c-2.1-2.1-5.5-2.1-7.6,0c-1.7,1.7-2,4.1-1,6.2
				l-14.5,14.5c-2.1-1-4.5-0.6-6.2,1c-2.1,2.1-2.1,5.5,0,7.7c1.1,1.1,2.6,1.6,4.1,1.6c-0.1,1.5,0.5,2.9,1.6,4c2.1,2.1,5.5,2.1,7.6,0
				c1.7-1.7,2-4.1,1-6.2l14.5-14.5c2.1,1,4.5,0.6,6.2-1C1199.3,109.9,1199.3,106.5,1197.2,104.4z"/>
		</g>
	</g>
</g>
<g id="Forma_1_copy_3_1_" class="st0">
	<g id="Forma_1_copy_3">
		<g>
			<path class="st3" d="M1335.5,95c-0.6-0.8-1.4-1.3-2.4-1.5c0.2-0.9,0.1-1.9-0.5-2.8c-1.1-1.6-3.3-2-4.9-0.9
				c-1.3,0.9-1.8,2.4-1.4,3.8l-10.9,7.5c-1.2-0.9-2.8-0.9-4-0.1c-1.6,1.1-2,3.3-0.9,4.9c0.6,0.8,1.4,1.3,2.4,1.5
				c-0.2,0.9-0.1,1.9,0.5,2.8c1.1,1.6,3.3,2,4.9,0.9c1.3-0.9,1.8-2.4,1.4-3.8l10.9-7.4c1.2,0.9,2.8,0.9,4,0.1
				C1336.2,98.8,1336.6,96.6,1335.5,95z"/>
		</g>
	</g>
</g>
</svg>
