<?xml version="1.0" encoding="utf-8"?>
<!-- Generator: Adobe Illustrator 21.0.2, SVG Export Plug-In . SVG Version: 6.00 Build 0)  -->
<svg version="1.1" id="Group_1_1_" xmlns="http://www.w3.org/2000/svg" xmlns:xlink="http://www.w3.org/1999/xlink" x="0px" y="0px"
	 viewBox="0 0 1339.2 1175.8" style="enable-background:new 0 0 1339.2 1175.8;" xml:space="preserve">
<style type="text/css">
	.st0{fill-rule:evenodd;clip-rule:evenodd;fill:#2F3341;}
	.st1{enable-background:new    ;}
	.st2{opacity:7.843138e-02;}
	.st3{fill-rule:evenodd;clip-rule:evenodd;fill:#FFFFFF;}
	.st4{fill-rule:evenodd;clip-rule:evenodd;fill:#459271;}
	.st5{opacity:0.2314;enable-background:new    ;}
	.st6{clip-path:url(#SVGID_6_);}
	.st7{fill:#AEEBD7;}
	.st8{fill:#FEFEFE;}
	.st9{fill-rule:evenodd;clip-rule:evenodd;fill:#2E4048;}
</style>
<g id="Rectangle_1">
	<g>
		<path class="st0" d="M0,1005.5c19.7,14.4,239.3,170.3,557.8,170.3c504.7,0,752.5-150.7,781.4-169.4V0H0V1005.5z"/>
	</g>
</g>
<g id="Shape_1_copy_2__x2B__Ellipse_2_2_" class="st1">
	<defs>
		<path id="SVGID_1_" class="st1" d="M972.3,35.9c-4.9-87-79.1-159.1-79.1-159.1H-4.3v696.7c118.6,153.6,307.9,114.2,402.6-29.3
			s129.3-138.9,335.9-197.3C940.8,288.6,977.2,122.8,972.3,35.9z"/>
	</defs>
	<clipPath id="SVGID_2_">
		<use xlink:href="#SVGID_1_"  style="overflow:visible;"/>
	</clipPath>
	<g style="clip-path:url(#SVGID_2_);">
		
			<image style="overflow:visible;" width="1351" height="933" id="Shape_1_copy_2__x2B__Ellipse_2_xA0_Image" xlink:href="6ABC879B.png"  transform="matrix(0.72 0 0 0.72 0 0)">
		</image>
	</g>
</g>
<g id="Shape_1_copy" class="st2">
	<g>
		<path class="st3" d="M1339.2,184.2c-62.8-20-122.9-21.9-122.9-21.9s-73.5,2.9-117.4,46.6c-43.9,43.6-103.4,148.7-21.9,277.7
			c81.5,129,102.1,143,83.9,263.9c-17.3,114.7,55.1,220.2,178.4,209.4V184.2z"/>
	</g>
</g>
<g id="Ellipse_1_copy_2">
	<g>
		<circle class="st4" cx="825.1" cy="267.1" r="7.2"/>
	</g>
</g>
<g id="Ellipse_1_2_" class="st1">
	<defs>
		<circle id="SVGID_3_" class="st1" cx="593.3" cy="487.4" r="7.2"/>
	</defs>
	<clipPath id="SVGID_4_">
		<use xlink:href="#SVGID_3_"  style="overflow:visible;"/>
	</clipPath>
	<g style="clip-path:url(#SVGID_4_);">
		
			<image style="overflow:visible;" width="1860" height="1633" id="Ellipse_1_xA0_Image" xlink:href="6ABC8799.png"  transform="matrix(0.72 0 0 0.72 0 0)">
		</image>
	</g>
</g>
<g id="Ellipse_1_copy_4_2_" class="st5">
	<defs>
		<circle id="SVGID_5_" class="st5" cx="317.9" cy="647.6" r="49.3"/>
	</defs>
	<clipPath id="SVGID_6_">
		<use xlink:href="#SVGID_5_"  style="overflow:visible;"/>
	</clipPath>
	<g class="st6">
		<g>
			<path class="st7" d="M0.4,1176.3c0-390.8,0-781.7-0.1-1172.5c0-2.7,0.6-3.3,3.3-3.3c445.3,0.1,890.6,0.1,1336,0.1
				c0,390.1,0,780.2,0,1170.2c0,1.1-0.1,2.2,0,3.2c0.1,1.7-0.6,2.4-2.3,2.3c-1.2-0.1-2.4,0-3.6,0
				C889.3,1176.3,444.8,1176.3,0.4,1176.3z"/>
			<path class="st8" d="M0.4,1176.3c444.4,0,888.9,0,1333.3,0c1.2,0,2.4-0.1,3.6,0c1.7,0.1,2.4-0.6,2.3-2.3c-0.1-1.1,0-2.2,0-3.2
				c0-390.1,0-780.2,0-1170.2c0.2,0.2,0.8-0.4,0.7,0.4c0,1,0,1.9,0,2.9c0,389.9,0,779.9,0.1,1169.8c0,2.9-0.6,3.5-3.5,3.5
				C892.5,1177,448.1,1177,3.6,1177C2.6,1177,1.2,1177.8,0.4,1176.3z"/>
		</g>
	</g>
</g>
<g id="Ellipse_1_copy">
	<g>
		<circle class="st9" cx="269.3" cy="701.3" r="4.3"/>
	</g>
</g>
</svg>
