<?xml version="1.0" encoding="utf-8"?>
<!-- Generator: Adobe Illustrator 21.0.2, SVG Export Plug-In . SVG Version: 6.00 Build 0)  -->
<svg version="1.1" id="Background_1_" xmlns="http://www.w3.org/2000/svg" xmlns:xlink="http://www.w3.org/1999/xlink" x="0px"
	 y="0px" viewBox="0 0 1339.2 1923.8" style="enable-background:new 0 0 1339.2 1923.8;" xml:space="preserve">
<style type="text/css">
	.st0{fill-rule:evenodd;clip-rule:evenodd;fill:#27CC94;}
	.st1{filter:url(#Adobe_OpacityMaskFilter);}
	.st2{mask:url(#Green_2_);}
	.st3{fill-rule:evenodd;clip-rule:evenodd;fill:#CBD656;}
	.st4{fill-rule:evenodd;clip-rule:evenodd;fill:#26BD88;}
	.st5{fill-rule:evenodd;clip-rule:evenodd;fill:#459271;}
	.st6{fill-rule:evenodd;clip-rule:evenodd;fill:#392D34;}
</style>
<g id="Cyan">
	<g>
		<rect x="0" y="0" class="st0" width="1339.2" height="1424.2"/>
	</g>
</g>
<defs>
	<filter id="Adobe_OpacityMaskFilter" filterUnits="userSpaceOnUse" x="0" y="0" width="1339.2" height="1460.2">
		<feColorMatrix  type="matrix" values="1 0 0 0 0  0 1 0 0 0  0 0 1 0 0  0 0 0 1 0"/>
	</filter>
</defs>
<mask maskUnits="userSpaceOnUse" x="0" y="0" width="1339.2" height="1460.2" id="Green_2_">
	<g id="GreenOpacity_Mask_1_" class="st1">
		
			<image style="overflow:visible;" width="1866" height="2965" id="GreenOpacity_Mask" xlink:href="497C9799.jpg"  transform="matrix(0.72 0 0 0.72 -3.6 -210.96)">
		</image>
	</g>
</mask>
<g id="Green" class="st2">
	<g>
		<rect x="0" y="0" class="st3" width="1339.2" height="1460.2"/>
	</g>
</g>
<g id="Shape_1">
	<g>
		<path class="st4" d="M890.4,1129H0v705.6c51.5,61.9,115.1,89.4,178.2,89.3h0.6c82.5-0.4,164-48,216.5-127.5
			c94.6-143.5,129.3-138.9,335.9-197.3c206.6-58.4,243-224.2,238.2-311C964.6,1201.1,890.4,1129,890.4,1129z"/>
	</g>
</g>
<g id="Shape_1_copy_3">
	<g>
		<path class="st5" d="M1339.2,941.6l-266.2-259l-625.9,643.3c0,0-0.1,103.5,58.9,167.6c58.8,64,203.1,153.6,389,46.2
			c185.9-107.4,206.8-135.5,375.6-103.2c23.2,4.4,46.2,6.2,68.6,5.5V941.6z"/>
	</g>
</g>
<g id="Shape_4">
	<g>
		<path class="st6" d="M1339.2,1404.5c-21.3,2.3-60.6,3.4-108-9.9c-72-20.2-216,36-325.4,126.7c-109.4,90.7-352.8,49-436.3,162.7
			c-81.3,110.7-198,311.3-469.4,147v5.4c66.9,52.6,268.9,173.1,468-92c63.4-80.6,87.8-112.3,338.4-132.5
			c69.1-5.8,135.4-47.5,184.3-89.3c49-41.8,154.1-116.6,265-83.5c44.5,13.3,69.5,9.9,83.5,1V1404.5z"/>
	</g>
</g>
</svg>
