<?xml version="1.0" encoding="utf-8"?>
<!-- Generator: Adobe Illustrator 21.0.2, SVG Export Plug-In . SVG Version: 6.00 Build 0)  -->
<svg version="1.1" id="Group_1_xA0_Image_1_" xmlns="http://www.w3.org/2000/svg" xmlns:xlink="http://www.w3.org/1999/xlink"
	 x="0px" y="0px" viewBox="0 0 1339.2 1175.8" style="enable-background:new 0 0 1339.2 1175.8;" xml:space="preserve">
<style type="text/css">
	.st0{fill:#2F3341;}
	.st1{fill:#FEFEFE;}
	.st2{fill:#3F4350;}
	.st3{fill:#EAE8E9;}
	.st4{fill:#EAF9F4;}
	.st5{fill:#27CB93;}
	.st6{fill:#375552;}
	.st7{fill:#4A9474;}
</style>
<g>
	<g>
		<path class="st0" d="M0.4,1007.8c0-141.4,0-282.7,0-424.1c1.6-1,1.8,0.8,2.4,1.4c4.6,4.9,8.9,10.1,13.6,14.9
			c55.9,56.4,122.4,82,202,68.6c16.7-2.8,32.9-7.5,48.4-14.4c13.2-4.9,25.5-11.5,37.4-18.9c13.9-8.6,27.1-18.1,39-29.2
			c1.4-1.1,2.8-2.2,4.1-3.4c15-13.8,28.5-28.8,40.3-45.3c12.5-17.4,23.9-35.6,36.7-52.8c15.8-21.3,32.6-41.7,52.6-59.3
			c14.9-13.1,31.5-23.8,49.1-33c9.9-4.6,19.8-9,30-12.9c33.7-12.7,68.5-21.9,103.2-31.6c24.5-6.8,49.1-13.7,73.6-20.5
			c29.9-8.2,58.5-19.6,85.5-34.9c66.7-37.7,112.9-92.3,137.2-165.2c6.1-18.2,10.4-36.9,12.7-55.9c0.4-3.3,1.3-4.9,5-4.3
			c2.6,0.4,5.3,0.1,7.9,0.1c6.7,0,9.8-2.7,11-9.4c2.9,0,5.7,0.1,8.6,0c3.4-0.1,6.2-1.6,8-4.7c3.7-6.5-0.8-13.9-8.6-14
			c-9.7-0.1-19.4-0.1-29.1-0.1c0.3-14.5-0.3-28.9-2.8-43.2c-0.9-5-2.6-9.9-2.9-15c124.8,0,249.6,0,374.4,0c0,60,0,120,0,180
			c0,1.4-0.1,2.9-0.1,4.3c-3.1-0.8-6.2-1.7-9.3-2.6c-17.8-5.1-35.9-9.5-54.2-12.6c-14.9-2.5-29.8-4.4-44.8-6
			c-11.3-1.2-22.4-1.3-33.6,0.5c-19.9,3.2-39.4,8.1-57.9,16.4c-15.2,6.8-29.3,15.4-41.3,27c-14.4,13.9-26.2,29.8-36.1,47.2
			c-16.6,29.1-25.9,60.4-27.9,93.8c-0.8,13.5,0.1,27.1,2.2,40.4c4.7,30.2,15.1,58.4,30.4,84.8c14.1,24.4,30.1,47.6,45.1,71.4
			c14,22.1,28,44.1,38.6,68.1c8.8,20.1,13.6,41.1,13.9,63c0.2,12.3,0.1,24.6-1.3,36.9c-1.1,9.8-2.1,19.7-3.6,29.5
			c-1.7,11.6-3.1,23.2-3.7,34.9c-0.6,12.5,0.4,24.9,2.3,37.2c3.6,24,11.1,46.8,23.4,67.9c14.6,25,34.3,44.8,59.6,58.8
			c23.2,12.8,48.4,18.5,74.8,19.3c7.8,0.3,15.5-0.9,23.3-0.8c0,14,0,28.1,0.2,42.1c0,2.4-0.8,3.6-2.7,4.8c-8,5-16.2,9.8-24.5,14.4
			c-51.8,28.4-106.4,50.4-162.4,69c-92.8,30.8-187.9,51.4-284.7,65c-46.6,6.6-93.3,11.4-140.2,14.8c-40.6,2.9-81.2,4.5-121.9,5.5
			c-64.8,1.6-129.3-0.7-193.4-10.5c-46-7-91.3-17-136-30.1c-81.2-24-158.5-57-231.3-100.2C28.3,1026.4,14.3,1017.1,0.4,1007.8z
			 M598.7,488.2c0.2-3.7-3-7.2-6.7-7.5c-3.9-0.3-7.5,3-7.6,6.9c-0.2,3.7,3,7.2,6.7,7.5C594.9,495.4,598.5,492.2,598.7,488.2z"/>
		<path class="st1" d="M992,77.6c-1.2,6.7-4.3,9.3-11,9.4c-2.6,0-5.3,0.3-7.9-0.1c-3.6-0.5-4.6,1.1-5,4.3
			c-2.3,19.1-6.6,37.7-12.7,55.9c-24.3,72.9-70.6,127.5-137.2,165.2c-27,15.3-55.6,26.7-85.5,34.9c-0.6-1.1-1.1-2.2-1.7-3.1
			c-10.4-15.6-24-27.6-40.5-36.2c-21.9-11.4-45.2-15.5-69.6-11.4c-36.8,6.2-64.1,26.1-82,58.6c-9.7,17.7-13.6,37-12.9,57.1
			c-17.6,9.1-34.1,19.8-49.1,33c-20,17.6-36.8,38-52.6,59.3c-12.8,17.2-24.1,35.4-36.7,52.8c-11.9,16.5-25.4,31.5-40.3,45.3
			c-1.3,1.2-2.7,2.3-4.1,3.4c-0.7-0.1-1.5-0.1-2.1-0.5c-10.3-5.8-21.1-8-32.8-6.1c-17.3,2.9-29.4,12.6-37,28.1
			c-4.1,8.4-4.9,17.4-4.5,26.6c-15.5,6.9-31.7,11.6-48.4,14.4C138.8,682,72.4,656.4,16.4,600c-4.7-4.8-9-10-13.6-14.9
			c-0.6-0.6-0.8-2.4-2.4-1.4c0-193.3,0-386.6-0.1-579.8c0-3,0.7-3.4,3.5-3.4c320.4,0.1,640.9,0.1,961.3,0.1c0.3,5.1,2,10,2.9,15
			c2.5,14.3,3.1,28.7,2.8,43.2c-1.4,0-2.9,0.1-4.3,0.1c-19.3,0-38.6,0-57.9,0c-4,0-7.3,1.3-9.3,4.9c-2,3.7-1.6,4.5,2.5,4.5
			c26.4,0,52.7,0,79.1,0C987.7,68.2,990.8,70.9,992,77.6z M823.3,274.8c4,0,7.3-3.4,7.2-7.4c-0.1-3.8-3.3-7-7.2-7
			c-3.8,0-7.1,3.2-7.2,7C816.1,271.4,819.4,274.8,823.3,274.8z"/>
		<path class="st1" d="M0.4,1007.8c13.9,9.3,27.9,18.6,42.3,27.2c72.8,43.3,150.1,76.3,231.3,100.2c44.6,13.2,90,23.1,136,30.1
			c64.1,9.8,128.6,12.1,193.4,10.5c40.7-1,81.3-2.6,121.9-5.5c46.9-3.4,93.6-8.2,140.2-14.8c96.7-13.6,191.9-34.2,284.7-65
			c56-18.6,110.5-40.6,162.4-69c8.3-4.5,16.4-9.4,24.5-14.4c1.9-1.2,2.8-2.4,2.7-4.8c-0.2-14-0.1-28.1-0.2-42.1c0-1.3,0.1-2.6,0.1-4
			c0-255.9,0-511.7,0-767.6c0-1.3-0.1-2.6-0.1-4c0-1.4,0.1-2.9,0.1-4.3c0-60,0-120,0-180c0.2,0.2,0.8-0.4,0.7,0.4c0,1,0,1.9,0,2.9
			c0,389.9,0,779.9,0.1,1169.8c0,3-0.7,3.5-3.5,3.5c-444.3-0.1-888.6-0.1-1332.9,0c-3.1,0-3.7-0.7-3.7-3.7
			C0.4,1118.2,0.4,1063,0.4,1007.8z"/>
		<path class="st2" d="M1339.5,184.8c0,1.3,0.1,2.6,0.1,4c0,255.9,0,511.7,0,767.6c0,1.3-0.1,2.6-0.1,4c-7.8-0.1-15.5,1-23.3,0.8
			c-26.4-0.9-51.5-6.5-74.8-19.3c-25.4-14-45-33.8-59.6-58.8c-12.3-21.1-19.8-43.8-23.4-67.9c-1.8-12.3-2.9-24.7-2.3-37.2
			c0.5-11.7,2-23.3,3.7-34.9c1.5-9.8,2.4-19.7,3.6-29.5c1.4-12.3,1.5-24.6,1.3-36.9c-0.3-22-5.1-42.9-13.9-63
			c-10.5-24-24.6-46.1-38.6-68.1c-15-23.8-31-47-45.1-71.4c-15.3-26.4-25.7-54.6-30.4-84.8c-2.1-13.4-3-26.9-2.2-40.4
			c1.9-33.4,11.3-64.7,27.9-93.8c9.9-17.4,21.7-33.3,36.1-47.2c12-11.6,26.1-20.2,41.3-27c18.5-8.3,38-13.2,57.9-16.4
			c11.2-1.8,22.3-1.7,33.6-0.5c15,1.6,29.9,3.5,44.8,6c18.3,3.1,36.4,7.4,54.2,12.6C1333.2,183.2,1336.4,184,1339.5,184.8z"/>
		<path class="st3" d="M526,412.2c-0.6-20.2,3.2-39.4,12.9-57.1c17.9-32.5,45.1-52.5,82-58.6c24.4-4.1,47.7,0,69.6,11.4
			c16.5,8.6,30.2,20.6,40.5,36.2c0.7,1,1.1,2.1,1.7,3.1c-24.5,6.8-49.1,13.7-73.6,20.5c-34.7,9.7-69.5,18.9-103.2,31.6
			C545.8,403.2,535.8,407.6,526,412.2z"/>
		<path class="st4" d="M266.8,654.2c-0.4-9.2,0.4-18.3,4.5-26.6c7.6-15.5,19.8-25.2,37-28.1c11.7-2,22.6,0.3,32.8,6.1
			c0.6,0.3,1.4,0.3,2.1,0.5c-11.9,11.2-25.1,20.7-39,29.2C292.3,642.7,280,649.3,266.8,654.2z"/>
		<path class="st5" d="M992,77.6c-1.2-6.7-4.3-9.4-11-9.4c-26.4,0-52.7,0-79.1,0c-4.1,0-4.5-0.8-2.5-4.5c2-3.6,5.3-4.9,9.3-4.9
			c19.3,0,38.6,0,57.9,0c1.4,0,2.9-0.1,4.3-0.1c9.7,0,19.4,0,29.1,0.1c7.8,0.1,12.3,7.5,8.6,14c-1.8,3.1-4.5,4.5-8,4.7
			C997.7,77.6,994.8,77.6,992,77.6z"/>
		<path class="st6" d="M598.7,488.2c-0.2,3.9-3.8,7.2-7.6,6.9c-3.8-0.3-6.9-3.7-6.7-7.5c0.2-3.9,3.8-7.2,7.6-6.9
			C595.7,481.1,598.9,484.5,598.7,488.2z"/>
		<path class="st7" d="M823.3,274.8c-4,0-7.3-3.4-7.2-7.4c0.1-3.8,3.4-7,7.2-7c3.8,0,7.1,3.2,7.2,7
			C830.6,271.5,827.3,274.8,823.3,274.8z"/>
	</g>
</g>
</svg>
