<?xml version="1.0" encoding="utf-8"?>
<!-- Generator: Adobe Illustrator 21.0.2, SVG Export Plug-In . SVG Version: 6.00 Build 0)  -->
<svg version="1.1" id="Layer_1" xmlns="http://www.w3.org/2000/svg" xmlns:xlink="http://www.w3.org/1999/xlink" x="0px" y="0px"
	 viewBox="0 0 600 700" style="enable-background:new 0 0 600 700;" xml:space="preserve">
<style type="text/css">
	.st0{fill:#392B2E;}
	.st1{fill:none;stroke:#392B2E;stroke-width:2.5845;stroke-linecap:round;stroke-miterlimit:10;}
	.st2{fill:#FFFFFF;}
</style>
<path class="st0" d="M282.4,630h-9.1c0,0-20.2-3.7-10.3,15.4c0,0,0.7,0.5,1.7,0.7l1.2,4l0.6-4.1c0.5-0.1,1-0.2,1.5-0.6
	c0,0,1,1,2.5,1.2l1.1,3.5l0.6-3.6c0.7-0.2,1.3-0.5,2.1-1.2c0,0,0.7,0.8,1.9,1l1.2,3.8l0.6-3.9c0.6-0.2,1.3-0.5,2-1.1l7.2-0.4
	C287.2,644.6,289.1,633.5,282.4,630z"/>
<g>
	<path class="st0" d="M486.3,502.2c0,0-89.7,88.1-198.4,137.8l-5-5.8c0,0,116.8-62.4,154-119.5c0,0-171.2,48.7-314.6,41.5v-8.3
		c0,0,205.8,9.2,297.5-73.7L486.3,502.2z"/>
	<path class="st0" d="M421.9,463.9c0,0,69.9-10.6,77.8-146.3c7.9-135.7,89-130.4,105.6-79.8C622,288.3,612.5,384,592,437.2
		c-20.5,53.3-7.4,109.6-7.4,109.6H579c0,0-15.3-54.9-3.7-132.2c0,0,0.2-8.4-0.4-24.7c0,0-46.4,98.7-124.8,134.7
		S421.9,463.9,421.9,463.9z"/>
	<path class="st0" d="M553.7,324.1c53.1,3.8,23.1,59.9,2.6,113.1c-20.5,53.2-7.3,109.6-7.3,109.6h-5.6c0,0-15.3-54.9-3.7-132.2
		c0,0,0.2-8.4-0.4-24.7C539.3,389.8,519.3,321.7,553.7,324.1z"/>
	<path class="st0" d="M584.2,546.4h-9.1c0,0-20.2-3.7-10.3,15.4c0,0,0.7,0.5,1.7,0.7l1.2,4l0.6-4.1c0.5-0.1,1-0.2,1.5-0.6
		c0,0,1,1,2.5,1.2l1.1,3.5l0.6-3.6c0.7-0.2,1.3-0.5,2.1-1.2c0,0,0.7,0.8,1.9,1l1.2,3.8l0.6-3.9c0.6-0.2,1.3-0.5,2-1.1l7.2-0.4
		C589,561,590.9,549.9,584.2,546.4z"/>
	<path class="st0" d="M548.8,542.7h-9.1c0,0-20.2-3.7-10.3,15.4c0,0,0.7,0.5,1.7,0.7l1.2,4l0.6-4.1c0.5-0.1,1-0.2,1.5-0.6
		c0,0,1,1,2.5,1.2l1.1,3.5l0.6-3.6c0.7-0.2,1.3-0.5,2.1-1.2c0,0,0.7,0.8,1.9,1l1.2,3.8l0.6-3.9c0.6-0.2,1.3-0.5,2-1.1l7.2-0.4
		C553.6,557.4,555.5,546.2,548.8,542.7z"/>
	<path class="st0" d="M123.1,548H114c0,0-20.2-3.7-10.3,15.4c0,0,0.7,0.5,1.7,0.7l1.2,4l0.6-4.1c0.5-0.1,1-0.2,1.5-0.6
		c0,0,1,1,2.5,1.2l1.1,3.5l0.6-3.6c0.7-0.2,1.3-0.5,2.1-1.2c0,0,0.7,0.8,1.9,1l1.2,3.8l0.6-3.9c0.6-0.2,1.3-0.5,2-1.1l7.2-0.4
		C127.9,562.6,129.8,551.5,123.1,548z"/>
	<path class="st1" d="M558.3,239.4C580.1,155.6,529.9,70,446.2,48.2c-67-17.5-135.5,22.7-153,89.7c-14,53.6,18.1,108.4,71.7,122.4
		c42.9,11.2,86.7-14.5,97.9-57.4c9-34.3-11.6-69.4-45.9-78.3c-27.4-7.2-55.5,9.3-62.7,36.7"/>
	<g>
		<g>
			<path class="st0" d="M487.6,504.6l-3.7-7.2h1.5v-5.3c0,0,4.9,3.4,0-2.6c-4.9-6.1-12.5-29.5-12.5-29.5
				c14.7-24.2-12.1-50.4-12.1-50.4l-25,34.8c-2.6-2.3-10.6-3.4-18.9-3.4s-16.3,1.1-18.9,3.4l-25-34.8c0,0-26.8,26.1-12.1,50.4
				c0,0-7.6,23.5-12.5,29.5c-4.9,6.1,0,2.6,0,2.6v5.3h1.5l-3.7,7.2h5.2l-0.8,4.9h2.7l1.5,6.8h2.6l4.2,5.7l3.8-2.3
				c0,0,15.9,20.8,51.5,20.8s51.5-20.8,51.5-20.8l3.8,2.3l4.2-5.7h2.6l1.5-6.8h2.7l-0.8-4.9H487.6z"/>
			<path class="st2" d="M372.1,475.3c0,0,14.2-5,25.6,7c11.5,12.1,4.7,23.8,4.7,23.8s1.7,3.8-0.9,3.2c-2.6-0.5-2.1-1.4-2.1-1.4
				s-38.6-5-29.8-29.3C369.6,478.6,366.3,476.2,372.1,475.3z"/>
			<path class="st2" d="M461.7,475.3c0,0-14.2-5-25.6,7s-4.7,23.8-4.7,23.8s-1.7,3.8,0.9,3.2c2.6-0.5,2.1-1.4,2.1-1.4
				s38.6-5,29.8-29.3C464.2,478.6,467.4,476.2,461.7,475.3z"/>
			<path class="st2" d="M426.7,524.6c0,0-6.2,2.9-9.8,9.3c-3.3-6.3-9.8-9.3-9.8-9.3h9.8H426.7z"/>
			<g>
				<path d="M396.8,524.7c-8.3-4.1-17.2-7-26.2-9.2s-18.2-3.6-27.5-4.1c-9.3-0.6-18.6-0.3-27.8,0.7c-9.2,1.1-18.4,3-27.3,5.6
					c8.9-2.6,18-4.5,27.3-5.6c9.2-1.1,18.6-1.4,27.8-0.8c9.3,0.5,18.5,1.9,27.6,4.1c9,2.2,17.9,5.1,26.3,9.2L396.8,524.7z"/>
			</g>
			<g>
				<path d="M398.9,531.1c-5.4-1.2-11-2.1-16.5-2.7c-5.5-0.7-11.1-1.1-16.7-1.3c-11.1-0.4-22.3,0-33.4,1.2
					c-5.5,0.6-11.1,1.5-16.5,2.5c-5.5,1.1-10.9,2.4-16.3,3.9c-10.7,3.1-21.2,7.1-31.2,12.1c10-4.9,20.4-9,31.2-12.1
					c5.4-1.6,10.8-2.8,16.3-3.9c5.5-1,11-1.9,16.5-2.6c11.1-1.2,22.3-1.7,33.4-1.3c5.6,0.2,11.1,0.6,16.7,1.2
					c5.5,0.6,11.1,1.5,16.5,2.7V531.1z"/>
			</g>
			<g>
				<path d="M401.8,537c-6.2-0.9-12.5-1-18.7-0.6c-6.2,0.5-12.4,1.5-18.4,3.4c-6,1.8-11.7,4.4-17,7.8c-5.3,3.3-10,7.5-14.1,12.2
					c4.1-4.7,8.8-8.9,14.1-12.3c5.3-3.4,11-6,17-7.8c6-1.9,12.2-3,18.4-3.5c6.2-0.5,12.5-0.4,18.7,0.5V537z"/>
			</g>
			<g>
				<path d="M436.9,524.5c8.4-4.1,17.3-7,26.3-9.2s18.3-3.5,27.6-4.1c9.3-0.6,18.6-0.2,27.8,0.8c9.2,1.1,18.4,3,27.3,5.6
					c-8.9-2.6-18.1-4.5-27.3-5.6c-9.2-1-18.6-1.3-27.8-0.7c-9.3,0.5-18.5,1.9-27.5,4.1s-17.9,5.1-26.2,9.2L436.9,524.5z"/>
			</g>
			<g>
				<path d="M434.8,530.9c5.5-1.2,11-2,16.5-2.7c5.5-0.6,11.1-1,16.7-1.2c11.2-0.4,22.3,0,33.4,1.3c5.5,0.6,11.1,1.5,16.5,2.6
					c5.5,1.1,10.9,2.4,16.3,3.9c10.7,3.1,21.2,7.2,31.2,12.1c-10-4.9-20.4-9-31.2-12.1c-5.4-1.5-10.8-2.8-16.3-3.9
					c-5.5-1-11-1.9-16.5-2.5c-11.1-1.2-22.3-1.7-33.4-1.2c-5.6,0.2-11.1,0.6-16.7,1.3c-5.5,0.7-11.1,1.5-16.5,2.7V530.9z"/>
			</g>
			<g>
				<path d="M431.9,536.8c6.2-0.9,12.5-1,18.7-0.5s12.4,1.6,18.4,3.5c6,1.8,11.7,4.4,17,7.8c5.3,3.3,10,7.6,14.1,12.3
					c-4.1-4.7-8.8-8.9-14.1-12.2c-5.3-3.4-11-5.9-17-7.8c-6-1.8-12.2-2.9-18.4-3.4c-6.2-0.4-12.5-0.3-18.7,0.6V536.8z"/>
			</g>
		</g>
		<path class="st0" d="M389.5,476.4c0,0,0.3,0.7,0.7,1.7c0.4,1,0.8,2.3,1.2,3.8c0.3,1.5,0.6,3.1,0.7,4.7s0.2,3.2-0.1,4.7
			c-0.1,0.7-0.1,1.5-0.3,2.2c-0.1,0.7-0.5,1.5-0.6,2.2s-0.4,1.4-0.6,2.1s-0.7,1.4-0.8,2c-0.4,1.3-0.9,2.5-1.4,3.5
			c-0.4,1-0.8,1.7-0.8,1.7s-0.7-0.2-1.6-0.7c-1-0.5-2.2-1.4-3.5-2.8c-0.7-0.7-1-1.5-1.5-2.4c-0.4-0.9-0.9-1.9-1.2-2.9
			c-0.4-1.1-0.4-2.1-0.5-3.2s-0.1-2.2,0-3.3c0.4-2.1,0.9-4.2,1.9-6s2.1-3.3,3.4-4.4c1.2-1.1,2.6-2,3.6-2.4
			C388.8,476.6,389.5,476.4,389.5,476.4z"/>
		<path class="st0" d="M444.2,476.4c0,0,0.7,0.2,1.7,0.6c1,0.5,2.3,1.3,3.6,2.4c1.3,1.1,2.4,2.6,3.4,4.4c1,1.7,1.5,3.9,1.9,6
			c0,1.1,0.1,2.2,0,3.3c-0.1,1.1-0.1,2.1-0.5,3.2c-0.3,1-0.8,2-1.2,2.9c-0.5,0.9-0.8,1.7-1.5,2.4c-1.3,1.4-2.6,2.3-3.5,2.8
			s-1.6,0.7-1.6,0.7s-0.4-0.7-0.8-1.7s-1-2.3-1.4-3.5c-0.2-0.6-0.6-1.4-0.8-2c-0.3-0.7-0.5-1.4-0.6-2.1s-0.5-1.4-0.6-2.2
			c-0.2-0.7-0.2-1.5-0.3-2.2c-0.3-1.5-0.2-3.1-0.1-4.7s0.4-3.2,0.7-4.7c0.4-1.5,0.8-2.8,1.2-3.8
			C443.9,477.1,444.2,476.4,444.2,476.4z"/>
	</g>
</g>
</svg>
